<svg width="60" height="47" xmlns="http://www.w3.org/2000/svg" xmlns:xlink="http://www.w3.org/1999/xlink">
 <!-- Generator: Sketch 44.1 (41455) - http://www.bohemiancoding.com/sketch -->
 <title>scooter</title>
 <desc>Created with Sketch.</desc>
 <defs>
  <path id="path-1" d="m53.9102,23.6201c1.29,1.42 2.09,3.31 2.09,5.38c0,4.42 -3.58,8 -8,8c-4.42,0 -8,-3.58 -8,-8c0,-0.42 0.04,-0.83 0.1,-1.23l4.99,-1.5c-0.67,0.71 -1.09,1.67 -1.09,2.73c0,2.21 1.79,4 4,4c2.21,0 4,-1.79 4,-4c0,-1.89 -1.31,-3.46 -3.08,-3.88l4.99,-1.5zm-37.9102,5.3799l4,0c0,4.42 -3.58,8 -8,8c-4.42,0 -8,-3.58 -8,-8l4,0c0,2.21 1.79,4 4,4c2.21,0 4,-1.79 4,-4z"/>
  <filter id="filter-2" filterUnits="objectBoundingBox" height="122.4%" width="105.8%" y="-11.2%" x="-2.9%"/>
  <path id="path-3" d="m8,29l8,0c0,2.21 -1.79,4 -4,4c-2.21,0 -4,-1.79 -4,-4zm40.9199,-3.8799c1.77,0.42 3.08,1.99 3.08,3.88c0,2.21 -1.79,4 -4,4c-2.21,0 -4,-1.79 -4,-4c0,-1.06 0.42,-2.02 1.09,-2.73l3.83,-1.15z"/>
  <filter id="filter-4" filterUnits="objectBoundingBox" height="138.1%" width="106.8%" y="-19.0%" x="-3.4%"/>
  <path id="path-5" d="m48.0001,17c0.06,0 0.12,0.01 0.18,0.01c0.41,0.01 0.81,0.03 1.2,0.08c0.17,0.02 0.34,0.05 0.51,0.07c0.29,0.05 0.58,0.1 0.87,0.17c0.17,0.04 0.34,0.08 0.5,0.13c0.31,0.09 0.61,0.19 0.9,0.3c0.13,0.04 0.25,0.08 0.37,0.13c0.86,0.35 1.66,0.8 2.4,1.33c0.06,0.04 0.11,0.08 0.16,0.12c0.34,0.25 0.67,0.51 0.98,0.79l0.09,0.09c0.69,0.65 1.31,1.38 1.84,2.17l-4.09,1.23l-4.99,1.5l-3.83,1.15l-4.99,1.5l-4.1,1.23c0,-0.38 0.02,-0.76 0.06,-1.13c0.01,-0.1 0.02,-0.2 0.03,-0.3c0.04,-0.28 0.08,-0.56 0.13,-0.83c0.02,-0.1 0.04,-0.19 0.06,-0.29c0.07,-0.32 0.14,-0.63 0.24,-0.93c0.01,-0.04 0.02,-0.08 0.03,-0.12c0.23,-0.73 0.53,-1.44 0.89,-2.11c0.00857,-0.00857 0.00979,-0.01714 0.01626,-0.01941c-0.00673,0.00211 -0.00786,0.01081 -0.01656,0.01951c-0.36,0.67 -0.66,1.38 -0.89,2.11c-0.01,0.04 -0.02,0.08 -0.03,0.12c-0.1,0.3 -0.17,0.61 -0.24,0.93c-0.02,0.1 -0.04,0.19 -0.06,0.29c-0.05,0.27 -0.09,0.55 -0.13,0.83c-0.01,0.1 -0.02,0.2 -0.03,0.3c-0.04,0.37 -0.06,0.75 -0.06,1.13l-9,0l0.3,-0.38l12.68,-15.62l-1,-8l0.02,0l0,-4l6,0c1,0 1.46,-1 2,-1c0.54,0 1,0.45 1,1l0,4c0,0.55 -0.4,1 -1,1c-0.6,0 -1,-1 -2,-1l-2.02,0l5.01996,11.9999l0.00034,0zm-4.57868,0.90403c-2.54858,1.05264 -4.65489,2.95864 -5.96157,5.36597c0.00008,0 0.00017,0 0.00025,0c1.30663,-2.40729 3.41286,-4.31328 5.96135,-5.36597l-0.00003,0zm-16.12162,10.71607l-0.3,0.38l-7,0l-4,0l-8,0l-4,0l-4,0c0,-6.63 5.38,-12 12,-12l12,0l3.3,11.62z"/>
  <filter id="filter-6" filterUnits="objectBoundingBox" height="110.3%" width="105.2%" y="-5.2%" x="-2.6%"/>
  <path id="path-7" d="m25,11c1.66,0 3,1.34 3,3c0,1.65 -1.34,3 -3,3l-1,0l-12,0l-4,0c-1.1,0 -2,-0.9 -2,-2l0,-2c0,-1.11 0.9,-2 2,-2l17,0z"/>
  <filter id="filter-8" filterUnits="objectBoundingBox" height="150.0%" width="113.6%" y="-25.0%" x="-6.8%"/>
 </defs>
 <g>
  <title>background</title>
  <rect fill="none" id="canvas_background" height="49" width="62" y="-1" x="-1"/>
 </g>
 <g>
  <title>Layer 1</title>
  <g fill-rule="evenodd" fill="none" id="Page-1">
   <g id="scooter">
    <g id="fill">
     <g id="Combined-Shape">
      <use id="svg_1" x="1" y="4.114041" xlink:href="#path-1" fill-rule="evenodd" fill="#AAB1BA"/>
      <use id="svg_2" x="1" y="4.114041" xlink:href="#path-1" filter="url(#filter-2)" fill="black"/>
     </g>
     <g id="Combined-Shape">
      <use id="svg_3" x="1" y="4.114041" xlink:href="#path-3" fill-rule="evenodd" fill="#E4F2DE"/>
      <use id="svg_4" x="1" y="4.114041" xlink:href="#path-3" filter="url(#filter-4)" fill="black"/>
     </g>
     <g id="Combined-Shape">
      <use id="svg_5" x="1" y="4.114041" xlink:href="#path-5" fill-rule="evenodd" fill="#E9CE9A"/>
      <use id="svg_6" x="1" y="4.114041" xlink:href="#path-5" filter="url(#filter-6)" fill="black"/>
     </g>
     <g id="Fill-7">
      <use id="svg_7" x="1" y="4.114041" xlink:href="#path-7" fill-rule="evenodd" fill="#7EE1E6"/>
      <use id="svg_8" x="1" y="4.114041" xlink:href="#path-7" filter="url(#filter-8)" fill="black"/>
     </g>
    </g>
    <path stroke-linejoin="round" stroke-linecap="round" stroke="#51565F" id="stroke" d="m37,45.116441l2,0l-2,0l0,0l0,0l0,0l0,0l0,0l0,0l0,0l0,0zm6,0l16,0l-16,0l0,0l0,0l0,0l0,0l0,0l0,0l0,0l0,0zm-22,0l10,0l-10,0l0,0l0,0l0,0l0,0l0,0l0,0l0,0l0,0zm-20,0l14,0l-14,0l0,0l0,0l0,0l0,0l0,0l0,0l0,0l0,0zm1,-20.002l2,0l-2,0l0,0l0,0l0,0l0,0l0,0l0,0l0,0l0,0zm42.979,-3.317c-4.661,1.648 -7.979,6.092 -7.979,11.317l22,-6.605c-2.146,-3.25 -5.813,-5.395 -10,-5.395l-5.021,-12l2.021,0c1,0 1.396,1 2,1c0.604,0 1,-0.448 1,-1l0,-4c0,-0.553 -0.458,-1 -1,-1c-0.542,0 -1,1 -2,1l-6.021,0l-3,-4m-9.979,27l-2,-7l2,7l0,0l0,0l0,0l0,0l0,0l0,0l0,0l0,0zm-1,-13l-17,0c-1.104,0 -2,0.895 -2,2l0,2c0,1.104 0.896,2 2,2l17,0c1.657,0 3,-1.344 3,-3c0,-1.657 -1.343,-3 -3,-3l0,0l0,0l0,0l0,0l0,0l0,0l0,0l0,0l0,0zm-3.672,14.029c-0.592,-1.689 -1.551,-3.204 -2.781,-4.452m-6.547,-3.577c-6.625,0 -12,5.372 -12,12l27,0l12.979,-16l-1,-8l-3,4m4.515,22.829c1.412,3.749 5.439,5.926 9.42,4.933c4.286,-1.069 6.896,-5.41 5.827,-9.698m-11.452,3.481c0.605,1.442 2.029,2.455 3.69,2.455c2.209,0 4,-1.791 4,-4c0,-0.352 -0.045,-0.693 -0.13,-1.018m-39.842,5.018c0.725,0 1.406,-0.194 1.993,-0.532m-4.016,-0.016c0.594,0.348 1.285,0.548 2.023,0.548l0,0m6.914,0c-1.384,2.388 -3.962,4 -6.921,4c-2.959,0 -5.537,-1.612 -6.921,-4"/>
   </g>
  </g>
 </g>
</svg>